# xmcd
#
# Track frame offsets: 
#        150
#        22148
#        45514
#        68188
#        86039
#        102118
#        118656
#        137807
#        154018
#
# Disc length: 2245 seconds
#
# Revision: 0
# Processed by: cddbd v1.5.2PL0 Copyright (c) Steve Scherf et al.
# Submitted via: ExactAudioCopyFreeDBPlugin 1.0
#
DISCID=7508c309
DTITLE=Paul Butterfield's - Better Days
DYEAR=1979
DGENRE=Blues
TTITLE0=Walkin' Blues
TTITLE1=Broke My Baby's Heart
TTITLE2=Highway 28
TTITLE3=Buried Alive in the Blues
TTITLE4=Done a Lot of Wrong Thing
TTITLE5=Rule Teh Road
TTITLE6=Nobody's Fault But Mine
TTITLE7=Baby Please Don't Go
TTITLE8=Please Send Me Someone to Love
EXTD=
EXTT0=
EXTT1=
EXTT2=
EXTT3=
EXTT4=
EXTT5=
EXTT6=
EXTT7=
EXTT8=
PLAYORDER=
